<svg width="360" height="599" viewBox="0 0 360 599" fill="none" xmlns="http://www.w3.org/2000/svg">
<path opacity="0.0157895" d="M-110.316 296.089C-98.2639 273.531 -53.2288 236.01 30.4922 266.398C135.144 304.384 66.2276 362.461 185.521 368.95C304.815 375.44 354.515 99.4506 545.149 143.901" stroke="#D5101C"/>
<path opacity="0.0315789" d="M-111.986 291.167C-100.051 268.834 -55.4758 231.679 27.3514 261.725C130.885 299.282 62.6724 356.793 180.707 363.17C298.742 369.547 348.027 96.3568 536.636 140.28" stroke="#D5101C"/>
<path opacity="0.0473684" d="M-113.655 286.244C-101.839 264.137 -57.7228 227.348 24.2106 257.051C126.627 294.18 59.1173 351.124 175.893 357.389C292.669 363.654 341.539 93.2627 528.122 136.658" stroke="#D5101C"/>
<path opacity="0.0631579" d="M-115.325 281.321C-103.626 259.44 -59.97 223.016 21.0696 252.377C122.369 289.078 55.562 345.456 171.078 351.608C286.595 357.761 335.051 90.1686 519.608 133.037" stroke="#D5101C"/>
<path opacity="0.0789474" d="M-116.994 276.399C-105.414 254.743 -62.217 218.685 17.9288 247.703C118.111 283.976 52.0069 339.787 166.264 345.827C280.522 351.868 328.563 87.0745 511.095 129.415" stroke="#D5101C"/>
<path opacity="0.0947368" d="M-118.663 271.476C-107.201 250.046 -64.4639 214.354 14.788 243.029C113.853 278.874 48.4518 334.119 161.45 340.047C274.448 345.975 322.075 83.9807 502.581 125.794" stroke="#D5101C"/>
<path opacity="0.110526" d="M-120.333 266.553C-108.989 245.349 -66.7109 210.023 11.6472 238.356C109.595 273.772 44.8967 328.45 156.636 334.266C268.375 340.082 315.587 80.8866 494.068 122.173" stroke="#D5101C"/>
<path opacity="0.126316" d="M-122.002 261.631C-110.776 240.652 -68.958 205.691 8.50622 233.682C105.336 268.67 41.3415 322.782 151.822 328.485C262.302 334.189 309.099 77.7925 485.554 118.551" stroke="#D5101C"/>
<path opacity="0.142105" d="M-123.672 256.708C-112.564 235.955 -71.2049 201.36 5.36542 229.008C101.078 263.568 37.7864 317.113 147.007 322.705C256.228 328.296 302.611 74.6987 477.041 114.93" stroke="#D5101C"/>
<path opacity="0.157895" d="M-125.341 251.786C-114.351 231.258 -73.452 197.029 2.2245 224.334C96.8202 258.466 34.2312 311.445 142.193 316.924C250.155 322.403 296.123 71.6046 468.527 111.308" stroke="#D5101C"/>
<path opacity="0.173684" d="M-127.01 246.863C-116.138 226.561 -75.699 192.698 -0.916299 219.66C92.5621 253.364 30.6761 305.776 137.379 311.143C244.082 316.51 289.635 68.5105 460.014 107.687" stroke="#D5101C"/>
<path opacity="0.189474" d="M-128.68 241.94C-117.926 221.864 -77.9461 188.367 -4.05724 214.987C88.3038 248.262 27.1208 300.108 132.564 305.362C238.008 310.617 283.147 65.4164 451.5 104.065" stroke="#D5101C"/>
<path opacity="0.205263" d="M-130.349 237.018C-119.713 217.167 -80.1931 184.036 -7.19804 210.313C84.0457 243.16 23.5657 294.439 127.75 299.582C231.935 304.724 276.659 62.3226 442.987 100.444" stroke="#D5101C"/>
<path opacity="0.221053" d="M-132.019 232.095C-121.501 212.47 -82.4401 179.704 -10.339 205.639C79.7875 238.058 20.0105 288.771 122.936 293.801C225.861 298.831 270.171 59.2285 434.473 96.8226" stroke="#D5101C"/>
<path opacity="0.236842" d="M-133.688 227.172C-123.288 207.773 -84.6871 175.373 -13.4798 200.965C75.5294 232.955 16.4554 283.102 118.122 288.02C219.788 292.938 263.683 56.1344 425.96 93.2012" stroke="#D5101C"/>
<path opacity="0.252632" d="M-135.815 222.399C-125.534 203.226 -87.392 171.192 -17.0785 196.441C70.8134 228.003 12.4424 277.584 112.85 282.389C213.257 287.194 256.737 53.1902 416.988 89.7296" stroke="#D5101C"/>
<path opacity="0.268421" d="M-137.027 217.327C-126.863 198.379 -89.1812 166.711 -19.7615 191.618C67.0131 222.752 9.3451 271.765 108.493 276.459C207.641 281.152 250.707 49.9465 408.932 85.9584" stroke="#D5101C"/>
<path opacity="0.284211" d="M-138.696 212.404C-128.651 193.682 -91.4281 162.379 -22.9023 186.944C62.755 217.649 5.78998 266.097 103.679 270.678C201.568 275.259 244.219 46.8524 400.419 82.3369" stroke="#D5101C"/>
<path opacity="0.3" d="M-140.365 207.482C-130.438 188.985 -93.6751 158.048 -26.0431 182.27C58.4969 212.548 2.23489 260.429 98.8648 264.897C195.495 269.366 237.731 43.7586 391.905 78.7157" stroke="#D5101C"/>
</svg>
